<svg width="30" height="30" viewBox="0 0 30 30" fill="none" xmlns="http://www.w3.org/2000/svg">
<circle cx="15" cy="15" r="15" fill="white"/>
<path d="M24.2249 16.9807C24.2249 18.1393 24.0232 19.21 23.6199 20.1927C23.2239 21.168 22.6629 22.015 21.9369 22.7337C21.2109 23.445 20.3345 24.0023 19.3079 24.4057C18.2885 24.8017 17.1555 24.9997 15.9089 24.9997H9.68286V8.97266H15.9089C17.1555 8.97266 18.2885 9.17432 19.3079 9.57766C20.3345 9.98099 21.2109 10.5383 21.9369 11.2497C22.6629 11.961 23.2239 12.808 23.6199 13.7907C24.0232 14.766 24.2249 15.8293 24.2249 16.9807ZM20.4189 16.9807C20.4189 16.1887 20.3162 15.4737 20.1109 14.8357C19.9055 14.1977 19.6085 13.6587 19.2199 13.2187C18.8385 12.7713 18.3692 12.4303 17.8119 12.1957C17.2545 11.9537 16.6202 11.8327 15.9089 11.8327H13.4229V22.1397H15.9089C16.6202 22.1397 17.2545 22.0223 17.8119 21.7877C18.3692 21.5457 18.8385 21.2047 19.2199 20.7647C19.6085 20.3173 19.9055 19.7747 20.1109 19.1367C20.3162 18.4987 20.4189 17.78 20.4189 16.9807Z" fill="#181A2A" fill-opacity="0.25"/>
<path d="M22.2249 14.9807C22.2249 16.1393 22.0232 17.21 21.6199 18.1927C21.2239 19.168 20.6629 20.015 19.9369 20.7337C19.2109 21.445 18.3345 22.0023 17.3079 22.4057C16.2885 22.8017 15.1555 22.9997 13.9089 22.9997H7.68286V6.97266H13.9089C15.1555 6.97266 16.2885 7.17432 17.3079 7.57766C18.3345 7.98099 19.2109 8.53832 19.9369 9.24966C20.6629 9.96099 21.2239 10.808 21.6199 11.7907C22.0232 12.766 22.2249 13.8293 22.2249 14.9807ZM18.4189 14.9807C18.4189 14.1887 18.3162 13.4737 18.1109 12.8357C17.9055 12.1977 17.6085 11.6587 17.2199 11.2187C16.8385 10.7713 16.3692 10.4303 15.8119 10.1957C15.2545 9.95366 14.6202 9.83266 13.9089 9.83266H11.4229V20.1397H13.9089C14.6202 20.1397 15.2545 20.0223 15.8119 19.7877C16.3692 19.5457 16.8385 19.2047 17.2199 18.7647C17.6085 18.3173 17.9055 17.7747 18.1109 17.1367C18.3162 16.4987 18.4189 15.78 18.4189 14.9807Z" fill="#181A2A"/>
</svg>
