<svg width="30" height="30" viewBox="0 0 30 30" fill="none" xmlns="http://www.w3.org/2000/svg">
<circle cx="15" cy="15" r="15" fill="white"/>
<path d="M17.3125 11.6875C16.7094 11.6875 16.2188 11.1968 16.2188 10.5938V7H10.625C9.67728 7 8.90625 7.77103 8.90625 8.71875V21.2812C8.90625 22.229 9.67728 23 10.625 23H19.375C20.3227 23 21.0938 22.229 21.0938 21.2812V11.6875H17.3125ZM11.4688 18.25H13.7413C14.0001 18.25 14.21 18.4599 14.21 18.7188C14.21 18.9776 14.0001 19.1875 13.7413 19.1875H11.4688C11.2099 19.1875 11 18.9776 11 18.7188C11 18.4599 11.2099 18.25 11.4688 18.25ZM11 16.2188C11 15.9599 11.2099 15.75 11.4688 15.75H18.3438C18.6026 15.75 18.8125 15.9599 18.8125 16.2188C18.8125 16.4776 18.6026 16.6875 18.3438 16.6875H11.4688C11.2099 16.6875 11 16.4776 11 16.2188ZM18.3438 13.25C18.6026 13.25 18.8125 13.4599 18.8125 13.7188C18.8125 13.9776 18.6026 14.1875 18.3438 14.1875H11.4688C11.2099 14.1875 11 13.9776 11 13.7188C11 13.4599 11.2099 13.25 11.4688 13.25H18.3438Z" fill="#181A2A"/>
<path d="M17.1562 10.5937C17.1562 10.6798 17.2263 10.7499 17.3125 10.7499H20.8848C20.7991 10.5916 20.6888 10.4462 20.5562 10.3208L17.543 7.47012C17.4261 7.35949 17.2958 7.26721 17.1563 7.19434V10.5937H17.1562Z" fill="#181A2A"/>
</svg>
